<?xml version="1.0" encoding="UTF-8" standalone="no"?>
<!-- Created with Inkscape (http://www.inkscape.org/) -->

<svg
   xmlns:dc="http://purl.org/dc/elements/1.1/"
   xmlns:cc="http://creativecommons.org/ns#"
   xmlns:rdf="http://www.w3.org/1999/02/22-rdf-syntax-ns#"
   xmlns:svg="http://www.w3.org/2000/svg"
   xmlns="http://www.w3.org/2000/svg"
   xmlns:sodipodi="http://sodipodi.sourceforge.net/DTD/sodipodi-0.dtd"
   xmlns:inkscape="http://www.inkscape.org/namespaces/inkscape"
   width="621"
   height="621"
   viewBox="0 0 621 620.99997"
   id="svg2"
   version="1.1"
   inkscape:version="0.91 r13725"
   sodipodi:docname="turtle green.svg"
   inkscape:export-filename="/home/dolf/Documents/git/PawikanMonitoring/resources/ios/icon/icon-small@3x.png"
   inkscape:export-xdpi="12.608696"
   inkscape:export-ydpi="12.608696">
  <defs
     id="defs4" />
  <sodipodi:namedview
     id="base"
     pagecolor="#ffffff"
     bordercolor="#666666"
     borderopacity="1.0"
     inkscape:pageopacity="0.0"
     inkscape:pageshadow="2"
     inkscape:zoom="0.98994949"
     inkscape:cx="518.44547"
     inkscape:cy="231.65783"
     inkscape:document-units="px"
     inkscape:current-layer="layer1"
     showgrid="false"
     fit-margin-top="0"
     fit-margin-left="0"
     fit-margin-right="0"
     fit-margin-bottom="0"
     inkscape:window-width="1920"
     inkscape:window-height="990"
     inkscape:window-x="0"
     inkscape:window-y="32"
     inkscape:window-maximized="1"
     units="px" />
  <metadata
     id="metadata7">
    <rdf:RDF>
      <cc:Work
         rdf:about="">
        <dc:format>image/svg+xml</dc:format>
        <dc:type
           rdf:resource="http://purl.org/dc/dcmitype/StillImage" />
        <dc:title></dc:title>
      </cc:Work>
    </rdf:RDF>
  </metadata>
  <g
     inkscape:label="Layer 1"
     inkscape:groupmode="layer"
     id="layer1"
     transform="translate(-63.22109,22.783937)">
    <path
       style="fill:#27ae60;fill-opacity:1;stroke:none"
       d="m 269.45605,566.49256 c -1.68137,-0.343 -7.18402,-1.3773 -12.22811,-2.2985 -10.75206,-1.9635 -20.84873,-4.9256 -28.1425,-8.2561 l -5.2148,-2.3813 3.67938,-4.7834 c 2.02366,-2.6309 8.15339,-9.2665 13.62162,-14.7458 13.31368,-13.34063 22.1551,-19.145 38.27668,-25.12845 6.35846,-2.35995 7.51744,-4.06902 8.75567,-12.9114 1.06515,-7.60639 2.00816,-10.10793 4.64765,-12.32892 3.98138,-3.3501 6.41155,-3.5567 39.08211,-3.32258 29.66967,0.21261 30.99811,0.16013 37.42357,-1.4788 3.66408,-0.93458 8.72647,-2.56818 11.24976,-3.63022 2.5233,-1.06203 4.91729,-1.93098 5.31997,-1.93098 0.82525,0 -1.88687,10.66673 -5.3438,21.01706 -3.2478,9.72425 -12.06642,27.26379 -17.66531,35.13499 -5.37866,7.5615 -15.3437,18.0487 -20.47537,21.5482 -4.99778,3.4081 -13.29857,7.4214 -19.87068,9.6069 -5.03185,1.6734 -10.7287,2.8994 -27.55925,5.931 -4.94911,0.8915 -21.11128,0.8651 -25.55659,-0.042 z m 175.61148,-10.0835 c -2.10441,-2.7283 -3.46095,-8.1882 -3.48031,-14.0078 -0.0183,-5.5153 0.24321,-6.669 2.45139,-10.8119 1.57681,-2.95838 4.22773,-6.1889 7.32064,-8.92119 5.9449,-5.25182 7.36973,-8.63213 8.96694,-21.27345 0.62319,-4.93231 1.52919,-9.44513 2.01333,-10.02849 0.48415,-0.58336 2.85223,-1.78232 5.26242,-2.66437 5.46555,-2.0002 9.09054,-4.9698 14.73089,-12.06758 5.54003,-6.97155 8.12639,-9.24016 15.51339,-13.60747 12.06792,-7.13474 23.28188,-11.8073 37.04994,-15.43771 4.06976,-1.07313 7.64803,-2.1842 7.95173,-2.46907 0.3037,-0.28486 -3.58324,-6.5178 -8.63763,-13.85097 l -9.18981,-13.33304 2.83442,-1.55277 c 11.34564,-6.21547 23.33346,-16.0022 30.70906,-25.07053 6.89273,-8.47466 9.54784,-13.0695 20.19453,-34.9479 8.8173,-18.11908 19.74807,-37.44858 21.17705,-37.44858 0.63694,0 8.86807,13.77361 12.1031,20.25281 9.30724,18.64069 13.96124,41.54521 12.39513,61.00223 -2.18498,27.14556 -11.45399,47.77004 -38.35917,85.35294 -3.78681,5.28967 -4.86744,6.19765 -14.0058,11.76806 -14.92675,9.09882 -28.68669,16.55866 -39.40506,21.36308 -5.29762,2.37455 -9.83098,4.31744 -10.07415,4.31744 -0.45644,0 -27.31207,12.07496 -58.44958,26.28036 -9.77869,4.4611 -17.90458,8.1112 -18.05752,8.1112 -0.15293,0 -0.60965,-0.4299 -1.01493,-0.9553 z m -124.4913,-86.49012 c -11.52276,-2.63761 -19.24549,-9.30796 -20.60234,-17.79487 -0.85173,-5.32747 -0.0877,-6.75341 4.8296,-9.01327 14.18599,-6.51959 32.83546,-6.77717 45.90207,-0.63399 7.47025,3.51209 16.95748,11.48502 16.95748,14.25083 0,2.58687 -13.12421,10.01583 -21.78132,12.32929 -6.51935,1.74219 -19.52488,2.18521 -25.30549,0.86201 z m -38.89208,-5.85238 c -27.33745,-6.39346 -32.03169,-7.83952 -38.21284,-11.77145 -6.40654,-4.0753 -11.65706,-11.11156 -10.76646,-14.42819 0.24182,-0.9005 2.9372,-4.28642 5.98975,-7.52428 l 5.5501,-5.88702 4.58097,0.41486 c 23.18331,2.09948 40.15319,9.58618 44.80305,19.766 2.69246,5.89457 1.25187,15.45534 -2.90771,19.29749 -1.02391,0.94576 -2.10041,1.68423 -2.39222,1.64104 -0.29182,-0.0432 -3.28191,-0.722 -6.64464,-1.50845 z m 97.82487,-2.60912 c -0.42034,-0.14065 -1.67711,-0.45607 -2.79283,-0.70092 -3.2154,-0.70564 -4.60509,-5.6947 -5.0365,-18.08135 l -0.36111,-10.36814 14.03056,-1.68936 c 7.7168,-0.92916 19.95046,-2.40964 27.18589,-3.28998 7.23544,-0.88033 13.62718,-1.41953 14.20389,-1.19823 1.12956,0.43346 2.8316,10.48268 2.8299,16.70827 -7.6e-4,3.11007 -0.33772,3.84671 -2.71258,5.93187 -5.78897,5.08279 -17.94536,9.92316 -28.63954,11.40357 -6.5457,0.90613 -17.57504,1.66329 -18.70768,1.28427 z m 55.92196,-25.42252 c -3.57433,-6.18259 -6.36003,-11.46554 -6.19048,-11.7399 0.65789,-1.06448 15.9265,-6.15488 30.51549,-10.17355 8.40682,-2.31573 17.75907,-5.05396 20.78277,-6.08496 l 5.49763,-1.87453 3.10026,9.30303 c 1.70514,5.11667 3.10025,9.66914 3.10025,10.11661 0,0.44746 -1.97752,1.62064 -4.39448,2.60707 -2.41696,0.98643 -7.83363,3.23415 -12.03704,4.99494 -4.20341,1.76078 -12.28543,5.12286 -17.96004,7.4713 -5.6746,2.34842 -11.57704,4.79888 -13.11654,5.44546 l -2.79907,1.17561 -6.49875,-11.24108 z m -236.0721,4.29577 c -1.8976,-1.90201 -7.10307,-16.87906 -6.45422,-18.56993 0.62952,-1.64048 15.04612,-6.77089 20.05019,-7.13523 8.0079,-0.58303 16.05038,4.36557 19.14952,11.78285 0.98764,2.36376 0.95314,2.93507 -0.35257,5.83858 -3.17325,7.05629 -7.62304,9.09052 -20.89851,9.55382 -9.39042,0.32771 -9.74617,0.28221 -11.49441,-1.47009 z m -73.53044,-3.4166 c -10.02189,-2.07776 -14.19142,-3.68299 -14.19142,-5.4636 0,-1.27769 1.71269,-3.47303 23.54923,-30.18558 8.16083,-9.98311 15.11818,-18.1511 15.46081,-18.1511 0.34261,0 1.02173,1.92092 1.50912,4.26872 2.94903,14.20538 10.53537,28.77244 20.57192,39.50154 2.61747,2.79808 4.55544,5.41686 4.30659,5.81951 -0.62551,1.0121 -8.80395,3.5963 -15.87983,5.01767 -9.18198,1.84443 -24.19073,1.5015 -35.32642,-0.80716 z m 194.0299,-3.76436 c -4.81605,-1.05795 -19.83795,-5.83647 -23.42908,-7.45286 l -2.06854,-0.93106 4.21751,-7.64257 c 2.31962,-4.20342 5.96121,-10.90977 8.0924,-14.90301 7.28824,-13.65607 14.22392,-24.83732 18.71318,-30.1682 4.5901,-5.4506 14.3321,-14.15905 15.8386,-14.15824 1.71047,7.6e-4 9.54712,21.37239 12.05029,32.86259 2.1265,9.76117 2.31265,24.52108 0.38868,30.81979 -1.77402,5.80783 -6.37006,10.58171 -11.4091,11.85056 -4.60966,1.16072 -16.51971,1.0134 -22.39394,-0.277 z m 52.49836,-8.19315 c -0.42596,-1.36595 -1.98376,-7.29836 -3.46176,-13.18314 -1.478,-5.88478 -5.29197,-20.99042 -8.4755,-33.56809 -3.18353,-12.57767 -5.67897,-23.1963 -5.54542,-23.59693 1.07615,-3.22847 33.83725,-6.87112 37.47314,-4.16659 1.77711,1.32189 19.64686,27.27397 23.28622,33.81837 4.50088,8.09362 8.80634,18.69272 9.15823,22.54557 0.42761,4.68191 -1.20833,9.28743 -3.72797,10.49505 -1.10442,0.52932 -11.59384,2.85743 -23.30984,5.17358 -11.71599,2.31614 -22.04899,4.38094 -22.96221,4.58844 -1.34389,0.30537 -1.80804,-0.0961 -2.43489,-2.10626 z m 131.27752,0.61205 c -4.65921,-3.0827 -9.18677,-8.90123 -12.65749,-16.26654 -1.82895,-3.88129 -3.32537,-7.34672 -3.32537,-7.70095 0,-0.35424 8.54534,-9.10997 18.98964,-19.45717 12.48069,-12.36465 19.7348,-19.00012 21.1636,-19.35873 4.0053,-1.00526 16.06666,7.13159 19.61042,13.22962 l 1.29801,2.2336 -19.81255,24.40506 c -10.96977,13.51254 -20.41782,24.47733 -21.16869,24.56699 -0.74587,0.0891 -2.58978,-0.65428 -4.09757,-1.65188 z m -235.78331,-3.78964 c -5.08823,-1.23512 -11.76002,-3.93282 -17.63011,-7.12865 -5.49427,-2.99122 -6.56165,-4.98401 -5.55517,-10.37144 2.86772,-15.35019 22.16879,-31.12045 38.05435,-31.09296 8.40889,0.0145 16.17816,5.75059 18.90376,13.95663 2.32773,7.00815 0.5018,13.15211 -6.77503,22.79682 -6.3599,8.42943 -9.52082,11.50113 -12.56158,12.20705 -3.9499,0.91698 -9.75338,0.76927 -14.43622,-0.36745 z m -92.12801,-6.47294 c -3.85783,-2.44656 -9.49216,-10.24928 -12.00565,-16.62607 -3.76776,-9.55891 -5.17699,-24.13796 -2.56194,-26.50454 1.35563,-1.22683 20.31899,-10.46082 21.48284,-10.46082 0.82635,0 3.51261,9.61739 5.01645,17.96003 2.40737,13.35493 5.83252,23.26235 9.47524,27.40753 1.17989,1.34265 1.0566,1.59084 -2.18884,4.40635 -7.40107,6.42065 -13.27388,7.58723 -19.2181,3.81752 z m 271.04072,-7.84293 c -1.58429,-0.79572 -16.23416,-18.99855 -22.92641,-28.48664 -5.59935,-7.93861 -19.55553,-32.54522 -20.0178,-35.29406 -0.47104,-2.80103 4.25399,-20.80693 7.09223,-27.02671 3.8389,-8.41262 6.9777,-11.04374 14.66774,-12.29533 8.42142,-1.37062 18.12921,2.81766 39.44062,17.01608 9.20647,6.13368 13.76885,9.52561 24.542,18.24588 15.60886,12.63453 22.1471,18.59895 22.41344,20.4464 0.71862,4.98451 -19.63727,24.45262 -36.71889,35.11747 -7.41832,4.6316 -24.88512,13.26876 -26.48455,13.09635 -0.26393,-0.0284 -1.1677,-0.39719 -2.00838,-0.81944 z m -231.18768,-5.4866 c -10.13814,-3.72025 -21.28863,-8.29589 -22.65981,-9.29853 -2.17099,-1.58746 -2.01412,-13.19558 0.24466,-18.10526 6.27836,-13.64662 23.34891,-20.47566 51.22989,-20.49441 13.41149,-0.009 15.18839,1.22217 14.62114,10.13073 -0.46082,7.23699 -3.41856,11.57363 -18.01498,26.41348 l -12.40981,12.61678 -4.02171,0.28006 c -2.88807,0.20113 -5.422,-0.23377 -8.98938,-1.54285 z m 79.01503,-31.14912 c -10.41356,-1.3158 -16.54325,-4.03912 -21.84216,-9.70409 -10.44018,-11.16138 -15.38955,-33.85668 -10.68113,-48.97818 1.40045,-4.4977 2.46978,-6.34312 5.3367,-9.21005 4.63129,-4.63129 8.58659,-5.80357 19.24744,-5.70459 16.36979,0.15197 17.94308,1.51939 30.67901,26.66434 11.32964,22.36849 12.56367,27.54022 8.48915,35.57732 -2.76995,5.46381 -6.7016,7.8566 -16.24126,9.8844 -10.15831,2.15931 -9.80977,2.1251 -14.98775,1.47085 z m 247.39516,-6.28995 c -1.4313,-0.50171 -3.62991,-2.18827 -4.88579,-3.74792 -1.9115,-2.37385 -2.28342,-3.51702 -2.28342,-7.01856 0,-3.78024 0.80911,-5.82464 8.40636,-21.24049 8.61117,-17.47322 11.01399,-21.2408 14.79279,-23.1949 2.95969,-1.53052 8.8574,-1.37728 12.61121,0.32766 3.82962,1.73938 7.73063,6.32642 8.84405,10.39939 1.83838,6.72488 -2.77398,18.76199 -11.11694,29.01247 -5.21599,6.40857 -10.38873,10.74944 -16.87567,14.16176 -4.80078,2.52536 -5.66186,2.64334 -9.49259,1.30059 z m -376.77804,-7.26248 c -4.49329,-4.4933 -6.62549,-9.78391 -8.05855,-19.9957 -1.13332,-8.07579 -0.72997,-12.18143 1.58637,-16.14755 2.02985,-3.47557 7.4361,-6.11197 13.53768,-6.60176 4.14953,-0.33307 5.39552,-0.12507 7.99187,1.33416 6.18385,3.47551 8.93782,9.80373 8.38793,19.27418 -0.52454,9.03407 -2.76719,14.12065 -9.08902,20.6149 -4.43985,4.56096 -5.40326,5.19716 -7.87002,5.19716 -2.33915,0 -3.42766,-0.6168 -6.48626,-3.67539 z m 34.41614,-5.14864 c -1.2718,-1.07015 -3.24777,-3.85762 -4.39104,-6.19438 -1.73641,-3.5491 -2.13209,-5.52526 -2.40309,-12.00196 -0.52107,-12.45274 2.66699,-24.18544 8.31539,-30.60236 3.69999,-4.20341 5.74945,-4.47171 13.07555,-1.71175 10.30496,3.88217 33.73025,16.48958 34.98101,18.82664 1.08825,2.03343 0.94707,7.2592 -0.27515,10.18439 -1.47796,3.53728 -9.66044,10.65958 -15.39118,13.39699 -4.99892,2.38785 -28.14527,10.04815 -30.36147,10.04815 -0.68071,0 -2.27823,-0.87558 -3.55002,-1.94572 z m 309.48958,-6.55911 c -3.41785,-3.71356 -8.3983,-7.66666 -16.43152,-13.04207 -6.33991,-4.24235 -13.49439,-9.40894 -15.89883,-11.4813 -7.85819,-6.77288 -15.88109,-19.16043 -15.88109,-24.52076 0,-1.41134 1.92409,-8.04152 4.27576,-14.73374 2.35167,-6.69222 4.80205,-13.71529 5.4453,-15.60683 2.17979,-6.40993 0.76119,-6.06718 27.41438,-6.62374 22.87445,-0.47766 23.89443,-0.43707 29.15338,1.16029 11.67047,3.5448 15.02735,10.24715 14.9853,29.91967 -0.0185,8.65126 -0.35807,11.65018 -2.10277,18.5699 -3.23669,12.83712 -7.47475,21.85785 -14.65007,31.18271 -3.05431,3.9693 -10.07528,10.69467 -11.0233,10.55919 -0.21017,-0.03 -2.58912,-2.45253 -5.28654,-5.38332 z m -156.7359,-6.02326 c -5.05588,-0.86983 -11.9299,-3.4552 -16.72129,-6.28899 -5.46464,-3.23197 -12.77666,-10.57913 -16.0785,-16.15577 -4.057,-6.85207 -7.67837,-16.43891 -7.69297,-20.36558 -0.0346,-9.31358 9.76468,-39.15972 14.0155,-42.68759 1.76967,-1.46869 15.49631,-3.32076 21.50959,-2.90219 12.11004,0.84295 24.54376,7.25357 32.55587,16.78527 5.13091,6.10404 11.03657,15.63462 14.54569,23.47389 2.32738,5.19928 2.56624,6.4066 2.57047,12.99236 0.005,6.9684 -0.12512,7.53056 -3.2217,13.9758 -7.7296,16.0884 -23.689,24.2341 -41.48266,21.1728 z M 238.50365,307.75417 c -11.14414,-3.79493 -20.29139,-11.34416 -24.28223,-20.04015 -5.84524,-12.73668 4.69529,-31.46684 17.7082,-31.46684 3.30842,0 7.18427,2.00755 14.54522,7.5339 3.8125,2.8623 10.45695,7.1892 14.76544,9.61536 4.3085,2.42615 7.83364,4.47414 7.83364,4.55109 0,0.0769 -1.30154,3.57216 -2.89231,7.76714 -3.03622,8.00677 -6.84484,15.33148 -10.80619,20.7824 -2.30832,3.1763 -2.45749,3.24765 -6.75016,3.22855 -2.65446,-0.0118 -6.6555,-0.79113 -10.12161,-1.97145 z m -67.85202,-3.71858 c -5.19009,-1.62061 -5.75741,-2.39679 -5.307,-7.26069 0.55096,-5.94966 9.10099,-28.97112 13.26035,-35.70432 5.16092,-8.35449 10.02313,-11.86773 16.3567,-11.81867 4.92358,0.0381 8.37526,1.62342 13.04474,5.99117 l 3.92668,3.67295 -0.449,4.29579 c -1.56907,15.012 -15.43771,36.36576 -26.24456,40.40911 -4.68706,1.75366 -9.83139,1.89988 -14.58791,0.41466 z m 387.97182,-3.29853 c -5.86886,-3.04892 -8.20165,-6.89813 -10.75227,-17.74179 -5.5499,-23.59468 -7.4293,-34.6531 -6.18136,-36.37121 0.33324,-0.4588 4.73288,-3.2963 9.77698,-6.30556 l 9.17108,-5.47139 3.82129,4.11871 c 14.0435,15.13656 17.58235,41.11617 7.93034,58.2186 -1.3002,2.30381 -2.99195,4.52482 -3.75947,4.93559 -2.40534,1.2873 -5.75875,0.82384 -10.00659,-1.38295 z m -139.7552,-8.65872 c -6.93563,-1.20504 -13.72899,-2.70468 -15.09635,-3.33253 -2.79137,-1.2817 -4.63659,-3.95666 -13.92733,-20.18997 -7.35538,-12.85174 -7.23412,-10.68385 -1.58384,-28.31504 5.24774,-16.37518 9.23441,-22.38894 17.90827,-27.01411 2.58133,-1.37644 4.38068,-1.67379 10.02435,-1.65651 5.81031,0.0178 7.69134,0.36071 12.11452,2.20852 14.96779,6.25286 26.55595,18.94153 31.75094,34.76624 3.1307,9.53657 1.91197,15.5193 -6.03618,29.63161 -8.30018,14.73734 -8.0666,14.49704 -14.68856,15.11214 -3.05955,0.28421 -6.07869,0.62111 -6.7092,0.74868 -0.63051,0.12757 -6.82099,-0.754 -13.75662,-1.95903 z M 68.45651,291.65819 c -2.52205,-0.6072 -4.86376,-1.38038 -5.2038,-1.71819 -1.15081,-1.14325 29.45633,-64.61419 35.41165,-73.43417 6.88478,-10.19655 17.26185,-18.97562 29.40418,-24.87614 13.8836,-6.74667 23.16299,-7.73094 43.94476,-4.66121 18.95384,2.79973 23.22452,3.07816 31.238,2.03666 6.44704,-0.83793 7.21013,-0.80079 8.55514,0.41644 2.08908,1.89059 1.83902,4.71592 -0.90306,10.20332 -1.93464,3.87155 -3.35576,5.47224 -7.59723,8.55723 -5.54304,4.03166 -11.18917,9.85611 -14.26931,14.71996 -2.67606,4.22578 -7.55052,13.59727 -8.21997,15.80353 -2.08042,6.85611 -13.42212,26.82191 -16.31219,28.71578 -2.72503,1.78572 -7.50988,1.63748 -15.00187,-0.46478 -11.18226,-3.13775 -17.4361,-1.43691 -26.78407,7.2844 -9.58003,8.9378 -20.3958,15.09773 -30.9524,17.62839 -5.44179,1.30452 -17.46667,1.19556 -23.30983,-0.21122 z m 212.84552,-12.38824 c -4.08996,-1.34598 -8.53873,-4.09524 -15.77575,-9.7491 -7.24529,-5.66034 -9.50989,-7.54173 -24.19098,-20.09744 l -6.63843,-5.67739 2.94851,-5.46634 c 5.48407,-10.16712 10.32662,-16.7791 17.64303,-24.0897 7.73816,-7.73199 15.02021,-12.67151 22.61745,-15.34172 5.85664,-2.05844 7.72358,-1.61951 15.50176,3.64465 7.50543,5.07955 12.7434,10.11439 24.38103,23.43542 l 8.56559,9.80463 -2.16055,4.33412 c -1.1883,2.38377 -4.33363,8.76937 -6.98962,14.19024 -6.04797,12.34387 -11.16531,18.21249 -19.45245,22.30821 -5.78933,2.86124 -12.58042,3.97774 -16.44959,2.70442 z m 199.47102,-26.54058 c -1.05086,-0.17814 -3.3868,-0.5145 -5.19099,-0.74747 -4.24019,-0.54753 -7.52181,-3.43495 -11.44497,-10.07017 -7.53278,-12.74015 -11.10534,-21.97167 -12.30803,-31.80401 -1.65844,-13.55821 1.71972,-25.79485 10.18383,-36.88869 4.48483,-5.87822 14.80011,-16.5012 15.56451,-16.02877 1.31572,0.81316 30.65167,36.16753 36.75029,44.28981 7.07813,9.42681 11.06728,17.41446 13.51398,27.05967 2.04222,8.05067 2.33597,12.60294 0.88849,13.76898 -1.95357,1.57373 -21.06351,7.66398 -27.70431,8.82924 -7.58876,1.3316 -17.28909,2.09383 -20.2528,1.59141 z m -279.00488,-8.00078 c -3.63825,-3.89477 -3.64406,-6.5402 -0.0299,-13.63335 9.74351,-19.12271 20.81526,-32.08779 32.95148,-38.58637 l 5.56502,-2.9799 5.62063,5.74948 c 7.26327,7.42977 7.38362,8.8154 1.60828,18.51702 -8.12612,13.65056 -17.68493,22.87715 -30.4326,29.37491 -9.25595,4.71795 -12.06382,5.00423 -15.28289,1.55821 z m 156.72379,-2.56301 c -1.47119,-0.53984 -4.39448,-1.23037 -6.49618,-1.53452 -5.44612,-0.78814 -9.28847,-3.31332 -15.33984,-10.08131 -5.09815,-5.70189 -18.32543,-17.24064 -27.59469,-24.07208 -14.72337,-10.85113 -19.47327,-19.80946 -16.00244,-30.1806 2.19034,-6.54491 12.86648,-19.07332 22.831,-26.79208 9.95532,-7.71163 25.37735,-14.01038 34.30342,-14.01038 6.84333,0 8.68914,2.04724 16.53747,18.34216 17.72428,36.79961 22.31339,48.35248 22.31339,56.17288 0,12.20869 -10.34134,30.12212 -18.70615,32.40305 -3.95857,1.07943 -8.48837,0.98493 -11.84598,-0.24712 z m 177.15261,-11.01767 c -2.29903,-4.0599 -8.56455,-15.01322 -13.92336,-24.3407 -5.35881,-9.32748 -9.62352,-17.58098 -9.47714,-18.34112 0.24271,-1.26029 11.30156,-8.78457 18.40071,-12.51957 2.70506,-1.42319 3.00871,-1.43819 5.28505,-0.26105 3.76716,1.94807 15.40725,13.99357 18.02901,18.65691 1.29975,2.31188 3.28629,6.95474 4.41455,10.31747 2.71173,8.08226 2.48775,16.6247 -0.56191,21.43152 -3.32833,5.24605 -8.34214,9.03535 -15.1186,11.42622 l -2.86823,1.01197 -4.18008,-7.38165 z m 47.63274,-13.83328 c -4.44389,-1.12862 -6.42256,-3.31252 -12.21371,-13.48047 -3.09303,-5.43065 -8.90766,-15.54851 -12.92141,-22.48414 -4.01376,-6.93563 -7.88211,-13.64199 -8.59633,-14.90301 -0.71421,-1.26102 -3.06743,-5.27926 -5.22935,-8.92941 -5.85301,-9.88207 -5.8365,-9.80179 -3.27193,-15.90564 6.68069,-15.90051 22.21473,-31.11095 40.31729,-39.47739 28.14982,-13.009966 62.32611,-14.481946 84.88646,-3.656086 6.64931,3.190746 7.09174,3.743326 14.95189,18.673966 3.39021,6.43982 3.36928,5.71152 0.59263,20.63148 -3.76954,20.25508 -11.7773,36.05361 -25.44668,50.20384 -13.28189,13.74911 -29.48713,24.24321 -42.97457,27.82922 -6.70694,1.78323 -25.32217,2.70961 -30.09429,1.49764 z M 404.7902,207.14369 c -1.38745,-1.23288 -4.28335,-7.88443 -10.23164,-23.5009 -15.50568,-40.7082 -21.03561,-55.79135 -20.61058,-56.21638 0.23331,-0.23332 4.15936,-1.13312 8.72455,-1.99957 11.43045,-2.16944 30.92747,-2.33855 39.63487,-0.34378 13.4689,3.08557 27.4398,10.4961 34.67075,18.39025 3.20393,3.4978 3.32211,3.79819 2.98033,7.57603 -0.36656,4.05196 -2.04798,8.10211 -9.82861,23.67489 -11.52157,23.06017 -17.5908,29.69833 -30.14196,32.9675 -6.8258,1.77789 -12.82355,1.56161 -15.19771,-0.54804 z M 252.82622,190.22756 c -3.60147,-1.32847 -4.94291,-2.43605 -6.42751,-5.30695 -1.47419,-2.85075 -0.99026,-6.18485 1.94434,-13.39604 5.43918,-13.3656 15.53256,-24.19794 27.97062,-30.01841 5.68962,-2.6625 7.997,-2.4139 10.65712,1.14822 2.96012,3.96381 8.08786,13.8746 8.08786,15.63201 0,3.10681 -6.41083,12.66069 -12.74145,18.98822 -5.08156,5.07909 -7.57367,6.89386 -13.37449,9.73935 -8.09227,3.96952 -11.97068,4.74287 -16.11649,3.2136 z m 237.75051,-28.34263 c -11.06663,-9.86512 -20.92456,-19.06486 -21.9065,-20.44387 -2.20465,-3.09614 -1.92866,-6.48197 1.01956,-12.50791 1.56319,-3.19506 2.77773,-4.54864 5.18193,-5.77517 8.57466,-4.37447 27.91465,2.36144 40.90642,14.24727 5.86313,5.36403 11.78479,14.02875 13.06665,19.11948 1.15888,4.60234 -0.33072,10.16056 -3.86708,14.42939 -2.74937,3.31885 -10.8395,8.86738 -12.92921,8.86738 -0.74284,0 -10.40514,-8.07146 -21.47177,-17.93657 z M 298.92929,144.0925 c -3.40524,-3.67799 -6.40341,-7.49734 -6.6626,-8.48747 -0.6156,-2.35165 1.04014,-5.63993 5.36142,-10.64769 9.73152,-11.27748 20.578,-16.89048 35.29443,-18.26473 8.53217,-0.79675 15.02568,3.03171 17.51033,10.32376 1.62789,4.7776 1.4822,7.23557 -0.5388,9.09036 -2.57004,2.35867 -41.82908,24.67302 -43.4088,24.67302 -0.75054,0 -4.15074,-3.00926 -7.55598,-6.68725 z m 159.56674,-14.31601 c -0.20258,-0.20258 -6.77154,-2.56398 -14.59769,-5.24754 -7.82615,-2.68358 -15.76917,-5.7816 -17.65116,-6.88453 -4.37617,-2.56461 -9.92019,-8.10132 -11.1959,-11.18114 -0.95151,-2.29714 -0.87202,-2.51597 1.98609,-5.46784 6.24852,-6.453476 13.46624,-8.809036 22.89885,-7.473216 6.26967,0.8879 14.5502,4.7336 19.57389,9.090646 6.95311,6.03043 13.71499,18.92339 11.39238,21.72197 -2.3952,2.88603 -11.13061,6.71751 -12.40646,5.44165 z m -91.21512,-9.46207 c -1.26102,-0.33208 -3.15256,-1.03984 -4.20341,-1.57279 -2.83384,-1.43723 -11.42464,-7.25436 -11.44566,-7.75024 -0.0342,-0.80717 9.7689,-8.52676 13.62444,-10.72875 6.19533,-3.538296 14.8993,-6.107516 22.19979,-6.552866 10.87111,-0.66319 22.29491,2.54411 22.85975,6.417986 0.58365,4.00286 -6.24952,12.11891 -13.19213,15.66885 -6.51575,3.33168 -11.39299,4.53869 -19.52531,4.83207 -4.41358,0.15923 -9.05644,0.0178 -10.31747,-0.31426 z M 238.50365,112.1581 c -5.67461,-1.86125 -11.71277,-3.39047 -13.41814,-3.39828 -1.70538,-0.008 -6.84447,0.67363 -11.42021,1.51432 -10.81478,1.98695 -15.80647,1.96745 -20.03236,-0.0783 -3.75814,-1.81928 -5.57025,-4.65704 -5.57025,-8.72297 0,-3.426656 0.80634,-5.000836 5.26282,-10.274406 6.25731,-7.40457 7.33496,-8.24966 39.82834,-31.23322 4.83392,-3.41918 14.63552,-10.85252 21.78132,-16.51854 7.1458,-5.66602 15.74369,-11.8694 19.10642,-13.78528 3.36273,-1.91589 9.14319,-5.34619 12.84546,-7.62288 11.2081,-6.89233 21.62269,-10.11072 41.41677,-12.7988797 25.37882,-3.4466 58.8849,2.2550797 82.40977,14.0235397 22.90718,11.45946 43.35095,31.89149 56.66424,56.6317 l 3.59856,6.68725 -16.3098,-0.0115 c -9.6638,-0.007 -23.47252,-0.625 -33.8877,-1.51698 -9.66785,-0.82797 -19.76922,-1.5106 -22.44749,-1.51696 -11.90341,-0.0282 -28.37676,3.81971 -41.02128,9.582 -3.64673,1.66187 -6.45195,2.49778 -7.38667,2.20111 -1.44909,-0.45992 -14.45032,-17.23972 -16.09652,-20.77468 -0.44044,-0.94577 -1.11298,-1.71958 -1.49454,-1.71958 -0.38156,0 -5.22716,3.73896 -10.76799,8.30879 -14.22253,11.73013 -26.70192,21.085866 -30.72126,23.031596 -5.52816,2.67613 -10.9694,3.79666 -18.48351,3.80636 -9.69413,0.0125 -13.98589,1.07909 -18.7519,4.6602 -2.18967,1.64529 -4.16244,2.97304 -4.38392,2.95055 -0.22148,-0.0225 -5.04556,-1.56371 -10.72016,-3.42495 z"
       id="path4212"
       inkscape:connector-curvature="0" />
  </g>
</svg>
