<?xml version="1.0" encoding="UTF-8" standalone="no"?>
<!-- Created with Inkscape (http://www.inkscape.org/) -->

<svg
   xmlns:dc="http://purl.org/dc/elements/1.1/"
   xmlns:cc="http://creativecommons.org/ns#"
   xmlns:rdf="http://www.w3.org/1999/02/22-rdf-syntax-ns#"
   xmlns:svg="http://www.w3.org/2000/svg"
   xmlns="http://www.w3.org/2000/svg"
   xmlns:sodipodi="http://sodipodi.sourceforge.net/DTD/sodipodi-0.dtd"
   xmlns:inkscape="http://www.inkscape.org/namespaces/inkscape"
   width="14.449778cm"
   height="14.449778cm"
   viewBox="0 0 512 511.99998"
   id="svg2"
   version="1.1"
   inkscape:version="0.91 r13725"
   sodipodi:docname="turtle green.svg"
   inkscape:export-filename="/home/dolf/Documents/git/envimo/resources/icon-512x512.png"
   inkscape:export-xdpi="90"
   inkscape:export-ydpi="90">
  <defs
     id="defs4" />
  <sodipodi:namedview
     id="base"
     pagecolor="#ffffff"
     bordercolor="#666666"
     borderopacity="1.0"
     inkscape:pageopacity="0.0"
     inkscape:pageshadow="2"
     inkscape:zoom="0.83430314"
     inkscape:cx="361.51022"
     inkscape:cy="247.0284"
     inkscape:document-units="px"
     inkscape:current-layer="layer1"
     showgrid="false"
     fit-margin-top="0"
     fit-margin-left="0"
     fit-margin-right="0"
     fit-margin-bottom="0"
     inkscape:window-width="1920"
     inkscape:window-height="1027"
     inkscape:window-x="0"
     inkscape:window-y="27"
     inkscape:window-maximized="1"
     units="cm" />
  <metadata
     id="metadata7">
    <rdf:RDF>
      <cc:Work
         rdf:about="">
        <dc:format>image/svg+xml</dc:format>
        <dc:type
           rdf:resource="http://purl.org/dc/dcmitype/StillImage" />
        <dc:title></dc:title>
      </cc:Work>
    </rdf:RDF>
  </metadata>
  <g
     inkscape:label="Layer 1"
     inkscape:groupmode="layer"
     id="layer1"
     transform="translate(-63.22109,-86.216063)">
    <path
       style="fill:#27ae60;fill-opacity:1;stroke:none"
       d="m 233.65,571.45743 c -1.38261,-0.28206 -5.90751,-1.13257 -10.05533,-1.89009 -8.84155,-1.61461 -17.14417,-4.05038 -23.14193,-6.78909 l -4.28819,-1.95817 3.0256,-3.93345 c 1.66408,-2.16342 6.70463,-7.61996 11.20123,-12.12566 10.948,-10.97016 18.21841,-15.74317 31.47539,-20.66343 5.22864,-1.94062 6.18168,-3.34601 7.19989,-10.61721 0.87589,-6.25483 1.65134,-8.31187 3.82182,-10.13822 3.27394,-2.75483 5.2723,-2.92472 32.13771,-2.7322 24.39773,0.17483 25.49013,0.13168 30.77386,-1.21604 3.01302,-0.76851 7.17589,-2.11184 9.25082,-2.98517 2.07494,-0.87332 4.04355,-1.58787 4.37468,-1.58787 0.67861,0 -1.5516,8.77138 -4.39428,17.28259 -2.6707,7.99637 -9.92236,22.41935 -14.5264,28.89194 -4.42294,6.21791 -12.61731,14.84167 -16.83715,17.71935 -4.10974,2.80252 -10.93558,6.10271 -16.33991,7.89987 -4.13775,1.37606 -8.82234,2.38422 -22.66231,4.87714 -4.06972,0.73309 -17.36007,0.71138 -21.0155,-0.0345 z m 144.4075,-8.29179 c -1.73048,-2.24351 -2.84598,-6.73326 -2.8619,-11.51879 -0.0151,-4.5353 0.19999,-5.484 2.0158,-8.89076 1.29664,-2.43271 3.47652,-5.08921 6.01986,-7.336 4.88856,-4.31864 6.06022,-7.09831 7.37362,-17.49342 0.51246,-4.0559 1.25748,-7.76685 1.65559,-8.24656 0.39812,-0.4797 2.34542,-1.46562 4.32735,-2.19094 4.49439,-1.64479 7.47527,-4.08673 12.1134,-9.92332 4.55563,-5.73279 6.68243,-7.5983 12.75685,-11.18959 9.9236,-5.86699 19.14498,-9.70929 30.46663,-12.69462 3.34661,-0.88245 6.28907,-1.7961 6.5388,-2.03035 0.24974,-0.23424 -2.94654,-5.35967 -7.10283,-11.38983 l -7.55689,-10.96392 2.33078,-1.27686 c 9.32966,-5.11106 19.18739,-13.15881 25.25244,-20.61581 5.66797,-6.96882 7.8513,-10.74721 16.60621,-28.73809 7.25058,-14.89955 16.23908,-30.79443 17.41415,-30.79443 0.52376,0 7.29233,11.32621 9.95253,16.65413 7.65346,15.32847 11.4805,34.16314 10.19267,50.16289 -1.79674,22.32213 -9.41876,39.2819 -31.54322,70.18679 -3.11394,4.34976 -4.00256,5.0964 -11.51714,9.67702 -12.27446,7.48207 -23.58943,13.61639 -32.40328,17.56712 -4.35629,1.95263 -8.08413,3.55029 -8.28409,3.55029 -0.37534,0 -22.45906,9.92939 -48.06382,21.61066 -8.04114,3.66842 -14.72316,6.66995 -14.84892,6.66995 -0.12576,0 -0.50132,-0.35352 -0.83459,-0.78556 z m -102.37074,-71.1219 c -9.47531,-2.16894 -15.82581,-7.65405 -16.94156,-14.63294 -0.70039,-4.38085 -0.0721,-5.55341 3.97144,-7.41173 11.66531,-5.36114 27.001,-5.57295 37.74584,-0.52133 6.14288,2.88803 13.94435,9.44427 13.94435,11.71863 0,2.12722 -10.79221,8.23614 -17.91105,10.13853 -5.36095,1.43262 -16.05556,1.79692 -20.80902,0.70884 z m -31.98144,-4.81248 c -22.47993,-5.25743 -26.34006,-6.44654 -31.4229,-9.67981 -5.26817,-3.35117 -9.58574,-9.13718 -8.85339,-11.86448 0.19885,-0.7405 2.4153,-3.52478 4.92545,-6.18731 l 4.56391,-4.84097 3.76699,0.34114 c 19.06392,1.72643 33.01847,7.88284 36.8421,16.25383 2.21405,4.84718 1.02943,12.70912 -2.39104,15.86857 -0.84198,0.77771 -1.72719,1.38496 -1.96715,1.34944 -0.23997,-0.0355 -2.69876,-0.59371 -5.46397,-1.24041 z m 80.4426,-2.14552 c -0.34565,-0.11565 -1.37911,-0.37503 -2.29658,-0.57637 -2.64406,-0.58026 -3.78682,-4.68282 -4.14157,-14.86852 l -0.29695,-8.52585 11.5375,-1.38918 c 6.34563,-0.76406 16.40552,-1.98148 22.3553,-2.70539 5.94979,-0.72391 11.2058,-1.1673 11.68003,-0.98532 0.92886,0.35644 2.32846,8.62004 2.32707,13.73942 -6.3e-4,2.55744 -0.27771,3.16319 -2.23059,4.87785 -4.76034,4.17964 -14.75669,8.15993 -23.55065,9.37729 -5.38261,0.74512 -14.45217,1.36775 -15.38356,1.05607 z m 45.98532,-20.90525 c -2.93921,-5.08402 -5.22993,-9.42826 -5.0905,-9.65387 0.54099,-0.87533 13.09655,-5.06123 25.09326,-8.36583 6.91303,-1.90426 14.60351,-4.15594 17.08993,-5.00374 l 4.52077,-1.54145 2.54938,7.65 c 1.40216,4.2075 2.54938,7.95105 2.54938,8.31901 0,0.36795 -1.62614,1.33267 -3.61364,2.14383 -1.98749,0.81115 -6.44169,2.65948 -9.89821,4.1074 -3.45651,1.44791 -10.10246,4.21259 -14.76876,6.14374 -4.66629,1.93114 -9.51994,3.94618 -10.78589,4.47787 l -2.30171,0.96672 -5.34401,-9.24368 z m -194.12502,3.53247 c -1.56042,-1.56405 -5.84094,-13.87987 -5.30738,-15.27029 0.51766,-1.34899 12.37261,-5.56779 16.48752,-5.86739 6.585,-0.47943 13.19843,3.58987 15.74689,9.68919 0.81215,1.94375 0.78378,2.41354 -0.28992,4.80113 -2.60941,5.80248 -6.26853,7.47525 -17.18511,7.85623 -7.72186,0.26948 -8.0144,0.23206 -9.452,-1.20887 z m -60.46499,-2.80952 c -8.24112,-1.70857 -11.66978,-3.02857 -11.66978,-4.49278 0,-1.05066 1.40837,-2.85592 19.36482,-24.82198 6.71076,-8.20924 12.43187,-14.92588 12.71362,-14.92588 0.28173,0 0.84018,1.5796 1.24097,3.51023 2.42502,11.68126 8.66336,23.65993 16.91654,32.4826 2.15238,2.3009 3.746,4.45435 3.54137,4.78546 -0.51437,0.83226 -7.2396,2.95728 -13.05819,4.12609 -7.55045,1.5167 -19.89233,1.2347 -29.04935,-0.66374 z m 159.5532,-3.09548 c -3.9603,-0.86996 -16.313,-4.7994 -19.26603,-6.12858 l -1.70098,-0.76562 3.46811,-6.28458 c 1.90745,-3.45652 4.90198,-8.97124 6.65448,-12.25493 5.99321,-11.22956 11.69651,-20.42404 15.38808,-24.80768 3.7745,-4.4821 11.78546,-11.64317 13.02428,-11.6425 1.40654,6.2e-4 7.85071,17.57478 9.9091,27.02331 1.74865,8.02674 1.90172,20.16399 0.31962,25.3435 -1.4588,4.77585 -5.23818,8.70147 -9.38185,9.74486 -3.79058,0.95448 -13.58436,0.83333 -18.41481,-0.22778 z m 43.17005,-6.73733 c -0.35027,-1.12323 -1.63127,-6.00153 -2.84665,-10.84066 -1.21538,-4.83912 -4.35165,-17.26068 -6.96951,-27.60345 -2.61785,-10.34278 -4.66988,-19.07461 -4.56006,-19.40405 0.88493,-2.65481 27.82479,-5.65021 30.81462,-3.42624 1.46134,1.08701 16.15586,22.42772 19.14855,27.80927 3.70113,6.65548 7.24156,15.37125 7.53093,18.5395 0.35163,3.84999 -0.99363,7.63717 -3.06556,8.63021 -0.90818,0.43526 -9.53376,2.3497 -19.16797,4.2543 -9.6342,1.90459 -18.13116,3.6025 -18.88211,3.77313 -1.1051,0.25111 -1.48677,-0.079 -2.00224,-1.73201 z m 107.95113,0.5033 c -3.83132,-2.53494 -7.55439,-7.31959 -10.40841,-13.37618 -1.50396,-3.19163 -2.73449,-6.0413 -2.73449,-6.33258 0,-0.2913 7.02694,-7.49125 15.61542,-15.99988 10.26302,-10.1676 16.22817,-15.62403 17.40309,-15.91892 3.29361,-0.82664 13.21181,5.86439 16.12589,10.87888 l 1.06737,1.83672 -16.29211,20.06858 c -9.02057,11.11153 -16.78982,20.12801 -17.40727,20.20174 -0.61334,0.0733 -2.12961,-0.53802 -3.36949,-1.35836 z m -193.88754,-3.11627 c -4.18411,-1.01565 -9.67041,-3.234 -14.49746,-5.86198 -4.518,-2.45971 -5.39572,-4.09841 -4.56808,-8.52856 2.35816,-12.62265 18.22967,-25.59073 31.29256,-25.56813 6.91474,0.0119 13.3035,4.72879 15.5448,11.47671 1.91412,5.76289 0.41264,10.81515 -5.57119,18.74611 -5.22983,6.93163 -7.82909,9.45752 -10.32955,10.03801 -3.24805,0.75404 -8.02032,0.63258 -11.87108,-0.30216 z m -75.758,-5.32278 c -3.17235,-2.01183 -7.80553,-8.42811 -9.8724,-13.67182 -3.09828,-7.86041 -4.2571,-19.84894 -2.10671,-21.79501 1.11475,-1.00884 16.70855,-8.60207 17.6656,-8.60207 0.67952,0 2.88846,7.9085 4.12509,14.76876 1.97961,10.98193 4.79615,19.12892 7.79161,22.53755 0.97024,1.10408 0.86885,1.30817 -1.79991,3.6234 -6.08599,5.27978 -10.91528,6.23907 -15.80328,3.13919 z m 222.88014,-6.44934 c -1.30278,-0.65433 -13.34955,-15.62274 -18.85267,-23.42491 -4.60441,-6.52802 -16.08075,-26.76234 -16.46088,-29.02275 -0.38734,-2.30332 3.49811,-17.10979 5.83203,-22.2244 3.15677,-6.9178 5.73785,-9.0814 12.06146,-10.1106 6.92504,-1.12708 14.90788,2.317 32.43251,13.99253 7.5706,5.04381 11.3223,7.83303 20.18119,15.00382 12.83536,10.38953 18.21184,15.29415 18.43085,16.81333 0.59093,4.09882 -16.14797,20.10769 -30.1944,28.87753 -6.10017,3.80862 -20.46334,10.91106 -21.77857,10.76929 -0.21703,-0.0233 -0.96021,-0.32661 -1.65152,-0.67384 z m -190.1085,-4.5117 c -8.33671,-3.0592 -17.5059,-6.82181 -18.63344,-7.64629 -1.78523,-1.30539 -1.65623,-10.85089 0.20119,-14.88818 5.16277,-11.22179 19.2001,-16.83739 42.12697,-16.85281 11.02844,-0.007 12.4896,1.00501 12.02315,8.33063 -0.37894,5.95106 -2.81113,9.51714 -14.81394,21.72013 l -10.20474,10.37493 -3.30711,0.2303 c -2.37489,0.16539 -4.45857,-0.19223 -7.39208,-1.26871 z m 64.97504,-25.6143 c -8.56319,-1.082 -13.60371,-3.32142 -17.96107,-7.9798 -8.58509,-9.17814 -12.65502,-27.84077 -8.78323,-40.27536 1.15161,-3.69852 2.03093,-5.21603 4.38843,-7.57354 3.80837,-3.80837 7.06086,-4.77235 15.82741,-4.69096 13.46108,0.12497 14.75482,1.24942 25.22773,21.92642 9.31651,18.39389 10.33127,22.64667 6.98074,29.25567 -2.27777,4.49296 -5.51081,6.46058 -13.35539,8.12807 -8.35331,1.77563 -8.0667,1.74749 -12.32462,1.2095 z m 203.43612,-5.17231 c -1.17698,-0.41256 -2.98492,-1.79944 -4.01765,-3.08196 -1.57185,-1.95204 -1.87768,-2.89209 -1.87768,-5.77145 0,-3.10854 0.66534,-4.78967 6.91265,-17.46632 7.08107,-14.36844 9.05694,-17.46657 12.1643,-19.07345 2.43379,-1.25857 7.28355,-1.13255 10.37035,0.26944 3.14914,1.43031 6.35699,5.20229 7.27257,8.55155 1.51172,5.52995 -2.28108,15.42821 -9.1416,23.85731 -4.28917,5.26985 -8.54278,8.8394 -13.87707,11.64539 -3.94774,2.07664 -4.65582,2.17365 -7.80587,1.06949 z m -309.82926,-5.97202 c -3.69489,-3.6949 -5.44823,-8.04544 -6.62665,-16.44272 -0.93194,-6.64082 -0.60026,-10.01694 1.30449,-13.27833 1.66917,-2.858 6.1148,-5.02595 11.1322,-5.42871 3.41221,-0.27388 4.43681,-0.10284 6.57182,1.0971 5.08506,2.85795 7.34968,8.06173 6.8975,15.8494 -0.43134,7.42882 -2.2755,11.61158 -7.47402,16.95189 -3.65094,3.75053 -4.44316,4.27368 -6.47161,4.27368 -1.92351,0 -2.81861,-0.5072 -5.33373,-3.02231 z m 28.30082,-4.2338 c -1.04582,-0.87999 -2.67069,-3.17216 -3.61081,-5.09371 -1.42787,-2.91847 -1.75325,-4.54349 -1.97609,-9.86936 -0.42848,-10.24004 2.1931,-19.88799 6.83785,-25.1647 3.04254,-3.45652 4.72784,-3.67714 10.75218,-1.4076 8.4739,3.19236 27.73681,13.55959 28.76532,15.48138 0.89488,1.67212 0.77879,5.96933 -0.22626,8.37475 -1.21534,2.90875 -7.9439,8.76551 -12.65636,11.01652 -4.11067,1.96355 -23.1442,8.26271 -24.96661,8.26271 -0.55976,0 -1.87342,-0.72 -2.91922,-1.59999 z m 254.49712,-5.39363 c -2.81054,-3.05371 -6.90603,-6.30439 -13.51184,-10.72466 -5.21339,-3.48854 -11.09661,-7.73709 -13.07381,-9.44121 -6.46189,-5.56943 -13.05922,-15.75586 -13.05922,-20.16373 0,-1.16056 1.58221,-6.61264 3.51601,-12.11574 1.93381,-5.50309 3.94879,-11.27825 4.47774,-12.83369 1.79247,-5.27096 0.62594,-4.98911 22.54319,-5.44678 18.80994,-0.39279 19.64868,-0.35941 23.97318,0.95412 9.59678,2.91493 12.35718,8.42636 12.3226,24.60332 -0.0152,7.11403 -0.29444,9.58008 -1.72913,15.27026 -2.66157,10.55612 -6.14658,17.97398 -12.04694,25.64193 -2.51159,3.264 -8.28502,8.79435 -9.06459,8.68295 -0.17283,-0.0247 -2.12907,-2.01675 -4.34719,-4.42677 z m -128.88588,-4.953 c -4.15751,-0.71528 -9.8101,-2.84126 -13.75012,-5.17152 -4.49364,-2.65769 -10.50641,-8.69935 -13.22155,-13.28509 -3.33612,-5.63454 -6.31402,-13.51792 -6.32603,-16.74687 -0.0284,-7.65867 8.02962,-32.20152 11.52512,-35.10253 1.45523,-1.20773 12.74281,-2.73071 17.68761,-2.38651 9.95823,0.69317 20.18264,5.9647 26.77109,13.80274 4.21921,5.01942 9.07551,12.85654 11.9611,19.30287 1.91384,4.27543 2.11026,5.26822 2.11373,10.68378 0.004,5.7302 -0.10288,6.19247 -2.64924,11.49247 -6.35615,13.22969 -19.47976,19.928 -34.11171,17.41066 z m -93.64021,-26.14114 c -9.16397,-3.12062 -16.68587,-9.32845 -19.96758,-16.47927 -4.80662,-10.47353 3.86099,-25.87557 14.56167,-25.87557 2.72055,0 5.90771,1.65083 11.96071,6.19522 3.13507,2.3537 8.59888,5.91177 12.14181,7.90683 3.54293,1.99505 6.4417,3.67914 6.4417,3.74242 0,0.0632 -1.07027,2.93743 -2.37838,6.38701 -2.49673,6.58407 -5.6286,12.60727 -8.88607,17.08963 -1.89816,2.61191 -2.02082,2.67058 -5.55074,2.65487 -2.18279,-0.01 -5.4729,-0.65055 -8.32312,-1.62114 z M 152.4019,355.6358 c -4.26788,-1.33265 -4.73439,-1.97091 -4.36402,-5.97055 0.45307,-4.89248 7.48386,-23.82331 10.90416,-29.36011 4.24388,-6.87 8.24214,-9.75898 13.45031,-9.71864 4.04872,0.0313 6.88708,1.33496 10.72685,4.92662 l 3.22896,3.02031 -0.36922,3.53248 c -1.29026,12.34455 -12.69462,29.90402 -21.58122,33.22891 -3.85423,1.44206 -8.08448,1.5623 -11.99582,0.34098 z m 319.03404,-2.71242 c -4.82604,-2.50716 -6.74432,-5.67242 -8.84172,-14.58929 -4.56376,-19.4022 -6.10921,-28.49568 -5.08301,-29.9085 0.27402,-0.37728 3.8919,-2.71059 8.03973,-5.18514 l 7.54149,-4.49919 3.1423,3.38686 c 11.54814,12.44698 14.45818,33.81034 6.52121,47.87388 -1.06917,1.89445 -2.46031,3.72082 -3.09146,4.0586 -1.97794,1.05856 -4.73549,0.67745 -8.22854,-1.13722 z m -114.92243,-7.12017 c -5.70326,-0.99092 -11.28952,-2.22409 -12.41392,-2.74038 -2.29538,-1.05396 -3.81273,-3.25361 -11.45262,-16.60247 -6.04842,-10.56814 -5.9487,-8.78546 -1.30241,-23.28381 4.31528,-13.46551 7.59357,-18.4107 14.72619,-22.21403 2.12266,-1.13187 3.60229,-1.37638 8.24315,-1.36217 4.77789,0.0146 6.32469,0.29661 9.96192,1.81609 12.3082,5.14181 21.83729,15.57586 26.10919,28.58871 2.57442,7.84204 1.57224,12.76171 -4.96362,24.36644 -6.82534,12.1187 -6.63327,11.9211 -12.07859,12.4269 -2.5159,0.23371 -4.99858,0.51075 -5.51706,0.61565 -0.51847,0.1049 -5.60898,-0.62002 -11.31223,-1.61093 z m -288.14793,-0.3455 c -2.073913,-0.49931 -3.99953,-1.1351 -4.27915,-1.41289 -0.946325,-0.94011 24.222306,-53.13305 29.11944,-60.38583 5.66144,-8.38475 14.19463,-15.60388 24.17942,-20.45595 11.41666,-5.54788 19.04722,-6.35725 36.13632,-3.83298 15.58598,2.30226 19.09782,2.53121 25.6874,1.67477 5.30148,-0.68904 5.92898,-0.65849 7.035,0.34245 1.71787,1.55465 1.51225,3.87796 -0.7426,8.39032 -1.59088,3.18362 -2.75948,4.49989 -6.2473,7.03671 -4.55811,3.31529 -9.20099,8.1048 -11.73383,12.10441 -2.20055,3.47491 -6.20888,11.1812 -6.75938,12.99544 -1.71076,5.63786 -11.03718,22.05599 -13.41372,23.61334 -2.24082,1.46842 -6.17546,1.34652 -12.33622,-0.3822 -9.19531,-2.58021 -14.33792,-1.18158 -22.02487,5.99006 -7.87778,7.34966 -16.771724,12.41505 -25.452548,14.49604 -4.474851,1.07272 -14.363059,0.98313 -19.167962,-0.17369 z m 175.02551,-10.187 c -3.36322,-1.10682 -7.0215,-3.36757 -12.97259,-8.01681 -5.95789,-4.65456 -7.8201,-6.20166 -19.89254,-16.52637 l -5.45887,-4.66859 2.4246,-4.49504 c 4.50962,-8.36055 8.49171,-13.79766 14.50808,-19.80926 6.36319,-6.35811 12.35131,-10.41994 18.59861,-12.61569 4.81599,-1.69268 6.3512,-1.33174 12.74729,2.99705 6.17181,4.17697 10.47906,8.31718 20.04883,19.27123 l 7.04359,8.06247 -1.77665,3.564 c -0.97715,1.96021 -3.5636,7.21116 -5.74765,11.66881 -4.97332,10.15052 -9.18138,14.97636 -15.99599,18.34432 -4.76064,2.35283 -10.34504,3.27095 -13.52671,2.22388 z m 164.0275,-21.82465 c -0.86413,-0.14649 -2.78501,-0.42308 -4.26861,-0.61465 -3.48677,-0.45024 -6.18528,-2.82461 -9.41135,-8.28083 -6.19429,-10.47638 -9.13205,-18.06758 -10.12104,-26.15283 -1.36376,-11.14909 1.41415,-21.21143 8.37429,-30.33403 3.68793,-4.83373 12.17031,-13.56914 12.79889,-13.18066 1.08193,0.66868 25.20525,29.74101 30.22022,36.42006 5.82043,7.75179 9.10076,14.32013 11.11271,22.25151 1.67934,6.62016 1.9209,10.36355 0.73062,11.3224 -1.60645,1.2941 -17.32079,6.30219 -22.7816,7.26039 -6.24033,1.095 -14.21703,1.72179 -16.65413,1.30864 z m -229.42918,-6.57914 c -2.99177,-3.20272 -2.99655,-5.37809 -0.0246,-11.21087 8.01221,-15.72485 17.11664,-26.38619 27.09641,-31.73005 l 4.57618,-2.45041 4.62192,4.72787 c 5.97267,6.10959 6.07164,7.24901 1.32251,15.22677 -6.68221,11.22503 -14.54254,18.81217 -25.02511,24.15535 -7.61128,3.87963 -9.92023,4.11504 -12.56731,1.28134 z m 128.87592,-2.1076 c -1.20978,-0.44391 -3.61363,-1.01174 -5.34189,-1.26185 -4.47841,-0.6481 -7.63802,-2.72458 -12.61414,-8.28999 -4.19227,-4.68873 -15.06923,-14.17719 -22.69145,-19.79477 -12.10721,-8.92302 -16.01312,-16.28956 -13.15901,-24.81788 1.80114,-5.38196 10.58027,-15.68423 18.77422,-22.03146 8.18638,-6.34137 20.86811,-11.52091 28.20812,-11.52091 5.62736,0 7.14519,1.68347 13.59897,15.08299 14.5749,30.26077 18.34858,39.76084 18.34858,46.19165 0,10.03936 -8.50381,24.7698 -15.3823,26.64543 -3.25518,0.88763 -6.98009,0.80992 -9.7411,-0.20321 z m 145.67479,-9.05996 c -1.89052,-3.33851 -7.04273,-12.34556 -11.44935,-20.01566 -4.40661,-7.6701 -7.91354,-14.45706 -7.79317,-15.08213 0.19958,-1.03635 9.29341,-7.22366 15.13113,-10.295 2.22441,-1.17031 2.4741,-1.18264 4.34597,-0.21467 3.09778,1.60193 12.66957,11.50709 14.82547,15.34181 1.06881,1.90109 2.70236,5.71897 3.63014,8.48419 2.22989,6.64614 2.04571,13.67069 -0.46206,17.6234 -2.73693,4.31389 -6.85985,7.42988 -12.43221,9.39592 l -2.35859,0.83216 -3.43733,-6.07002 z m 39.169,-11.37528 c -3.65427,-0.92808 -5.28135,-2.72393 -10.04349,-11.08516 -2.54344,-4.46569 -7.32488,-12.78573 -10.62543,-18.48899 -3.30057,-5.70325 -6.48156,-11.21797 -7.06887,-12.25493 -0.58731,-1.03695 -2.52239,-4.3412 -4.30016,-7.34276 -4.81301,-8.12615 -4.79943,-8.06013 -2.69055,-13.07941 5.49361,-13.07518 18.26745,-25.58292 33.15341,-32.46274 23.14794,-10.69826 51.25153,-11.90869 69.80319,-3.00645 5.46781,2.62379 5.83162,3.07819 12.29512,15.35584 2.78781,5.29554 2.7706,4.69665 0.48733,16.96552 -3.09974,16.656 -9.68462,29.64733 -20.92512,41.28324 -10.92187,11.30606 -24.24764,19.93549 -35.33853,22.88431 -5.5152,1.46637 -20.82273,2.22815 -24.7469,1.23153 z m -146.77217,-8.36369 c -1.14092,-1.01381 -3.52225,-6.48346 -8.4136,-19.32508 -12.75052,-33.47486 -17.29785,-45.87792 -16.94834,-46.22743 0.19185,-0.19186 3.42029,-0.93178 7.17431,-1.64427 9.3994,-1.78396 25.43204,-1.92302 32.59224,-0.2827 11.07564,2.53731 22.56409,8.63108 28.51019,15.12254 2.63463,2.87628 2.73181,3.12329 2.45076,6.22986 -0.30143,3.33198 -1.68408,6.66247 -8.08219,19.46816 -9.47433,18.96266 -14.46513,24.4213 -24.7861,27.10958 -5.61294,1.46198 -10.54497,1.28413 -12.49727,-0.45066 z M 219.97508,262.05005 c -2.96153,-1.09242 -4.06461,-2.0032 -5.28542,-4.36397 -1.21224,-2.34421 -0.8143,-5.08588 1.59886,-11.01573 4.4727,-10.9907 12.77261,-19.89827 23.00058,-24.68452 4.67865,-2.1894 6.57604,-1.98498 8.76349,0.9442 2.43414,3.25949 6.65074,11.40926 6.65074,12.8544 0,2.55476 -5.2717,10.41104 -10.47745,15.61424 -4.17863,4.1766 -6.22792,5.66891 -10.99801,8.00879 -6.65437,3.26419 -9.84364,3.90012 -13.25279,2.64259 z m 195.5052,-23.3065 c -9.10023,-8.11221 -17.20653,-15.67727 -18.01399,-16.81125 -1.81291,-2.54599 -1.58596,-5.3302 0.8384,-10.28541 1.28543,-2.62734 2.28416,-3.7404 4.26116,-4.74899 7.05105,-3.59718 22.95457,1.94184 33.63786,11.7157 4.82133,4.41091 9.69078,11.53602 10.74487,15.72219 0.95296,3.78456 -0.27196,8.35516 -3.17995,11.86547 -2.26084,2.72913 -8.91345,7.29175 -10.63185,7.29175 -0.61084,0 -8.55627,-6.63726 -17.6565,-14.74946 z M 257.88621,224.11261 c -2.80017,-3.02445 -5.2656,-6.16515 -5.47874,-6.97935 -0.50621,-1.93379 0.85532,-4.63778 4.40876,-8.75573 8.00235,-9.27361 16.92155,-13.88925 29.02305,-15.01931 7.01611,-0.65518 12.3558,2.49301 14.39896,8.48936 1.33864,3.92868 1.21883,5.94989 -0.44306,7.47511 -2.11338,1.93957 -34.39657,20.28893 -35.69559,20.28893 -0.61718,0 -3.41321,-2.47455 -6.21338,-5.49901 z m 131.21371,-11.77223 c -0.16658,-0.16658 -5.56832,-2.10839 -12.00386,-4.31512 -6.43554,-2.20674 -12.96719,-4.75428 -14.51477,-5.66123 -3.59858,-2.10891 -8.15749,-6.66182 -9.20653,-9.19439 -0.78244,-1.88897 -0.71707,-2.06891 1.63319,-4.49627 5.13824,-5.30678 11.07346,-7.24379 18.83001,-6.14533 5.15563,0.73014 11.96481,3.8925 16.09585,7.47536 5.71763,4.9589 11.27801,15.56094 9.3681,17.86224 -1.96961,2.37322 -9.15284,5.5239 -10.20199,4.47474 z M 314.0926,204.5596 c -1.03696,-0.27307 -2.59239,-0.85507 -3.45652,-1.29332 -2.3303,-1.18185 -9.39462,-5.96535 -9.41191,-6.37312 -0.0281,-0.66375 8.03309,-7.01166 11.20355,-8.82238 5.09449,-2.90959 12.25188,-5.02229 18.25516,-5.38851 8.93945,-0.54535 18.33338,2.09205 18.79786,5.27759 0.47994,3.2916 -5.13906,9.96553 -10.84806,12.88469 -5.35798,2.73968 -9.36859,3.73222 -16.0559,3.97347 -3.62934,0.13094 -7.44722,0.0146 -8.48418,-0.25842 z m -105.89514,-6.70704 c -4.66631,-1.53053 -9.63156,-2.78803 -11.03391,-2.79445 -1.40235,-0.007 -5.62829,0.55394 -9.39098,1.24525 -8.89313,1.63389 -12.99785,1.61785 -16.47286,-0.0644 -3.09036,-1.49602 -4.58048,-3.82954 -4.58048,-7.17301 0,-2.81778 0.66306,-4.11225 4.32768,-8.44877 5.14546,-6.08887 6.03163,-6.7838 32.75134,-25.68347 3.97499,-2.81163 12.03497,-8.92416 17.91105,-13.5834 5.87608,-4.65923 12.94623,-9.76035 15.71144,-11.3358 2.76522,-1.57546 7.51856,-4.39624 10.56299,-6.26839 9.21656,-5.66765 17.7806,-8.31417 34.05752,-10.52468 20.86932,-2.83418 48.42178,1.85438 67.76658,11.53173 18.83686,9.42326 35.64802,26.22477 46.59571,46.56895 l 2.95914,5.49901 -13.41176,-0.009 c -7.94666,-0.006 -19.30174,-0.51394 -27.86627,-1.24743 -7.94999,-0.68085 -16.25648,-1.24218 -18.45885,-1.24741 -9.78832,-0.0232 -23.33456,3.14099 -33.73231,7.87939 -2.99875,1.36658 -5.30552,2.05396 -6.07415,1.81 -1.1916,-0.37819 -11.88268,-14.17643 -13.23637,-17.08327 -0.36218,-0.77772 -0.91522,-1.41404 -1.22898,-1.41404 -0.31376,0 -4.29836,3.0746 -8.85465,6.83243 -11.69536,9.64583 -21.95732,17.33917 -25.26247,18.93917 -4.54588,2.20061 -9.02028,3.12204 -15.19922,3.13001 -7.97161,0.0103 -11.50077,0.88735 -15.41992,3.83214 -1.80059,1.35295 -3.42283,2.44477 -3.60495,2.42628 -0.18213,-0.0185 -4.14903,-1.28586 -8.81532,-2.81638 z"
       id="path4212"
       inkscape:connector-curvature="0" />
  </g>
</svg>
